<svg xmlns="http://www.w3.org/2000/svg" viewBox="0 0 660 330" font-family="-apple-system,Segoe UI,Helvetica,Arial,sans-serif">
<rect width="660" height="330" fill="#ffffff"/>
<line x1="52.0" y1="30" x2="52.0" y2="290" stroke="#eceef1" stroke-width="1"/>
<text x="52.0" y="306" text-anchor="middle" font-size="10" fill="#6b7280">0</text>
<line x1="200.0" y1="30" x2="200.0" y2="290" stroke="#eceef1" stroke-width="1"/>
<text x="200.0" y="306" text-anchor="middle" font-size="10" fill="#6b7280">0.25</text>
<line x1="348.0" y1="30" x2="348.0" y2="290" stroke="#eceef1" stroke-width="1"/>
<text x="348.0" y="306" text-anchor="middle" font-size="10" fill="#6b7280">0.5</text>
<line x1="496.0" y1="30" x2="496.0" y2="290" stroke="#eceef1" stroke-width="1"/>
<text x="496.0" y="306" text-anchor="middle" font-size="10" fill="#6b7280">0.75</text>
<line x1="644.0" y1="30" x2="644.0" y2="290" stroke="#eceef1" stroke-width="1"/>
<text x="644.0" y="306" text-anchor="middle" font-size="10" fill="#6b7280">1</text>
<polygon points="52,290 55.0,278.6 60.9,63.5 66.8,142.5 72.7,108.5 78.6,63.2 84.6,76.7 90.5,117.2 96.4,151.2 102.3,179.9 108.2,200.2 114.2,211.2 120.1,222.1 126.0,229.6 131.9,234.3 137.8,239.6 143.8,244.3 149.7,245.7 155.6,248.9 161.5,250.7 167.4,253.4 173.4,255.8 179.3,256.5 185.2,257.5 191.1,259.6 197.0,260.3 203.0,260.9 208.9,260.7 214.8,262.8 220.7,263.0 226.6,263.7 232.6,264.3 238.5,263.5 244.4,264.4 250.3,263.1 256.2,263.6 262.2,264.1 268.1,263.9 274.0,263.0 279.9,262.4 285.8,262.0 291.8,262.4 297.7,261.6 303.6,260.1 309.5,260.3 315.4,259.8 321.4,258.8 327.3,257.2 333.2,256.6 339.1,255.2 345.0,254.8 351.0,253.0 356.9,252.5 362.8,250.9 368.7,250.0 374.6,249.8 380.6,250.6 386.5,250.6 392.4,250.4 398.3,251.2 404.2,251.7 410.2,253.0 416.1,254.4 422.0,255.6 427.9,256.6 433.8,257.7 439.8,259.0 445.7,259.2 451.6,259.9 457.5,260.6 463.4,261.4 469.4,262.0 475.3,261.9 481.2,261.8 487.1,262.7 493.0,261.8 499.0,261.4 504.9,261.2 510.8,260.7 516.7,260.1 522.6,258.2 528.6,256.5 534.5,255.7 540.4,254.1 546.3,252.3 552.2,249.2 558.2,245.9 564.1,242.5 570.0,237.9 575.9,232.0 581.8,223.7 587.8,212.0 593.7,198.4 599.6,177.4 605.5,149.7 611.4,109.3 617.4,55.2 623.3,30.0 629.2,135.2 635.1,229.3 641.0,278.5 644,290" fill="#4b6bfb" fill-opacity="0.14"/>
<polyline points="55.0,278.6 60.9,63.5 66.8,142.5 72.7,108.5 78.6,63.2 84.6,76.7 90.5,117.2 96.4,151.2 102.3,179.9 108.2,200.2 114.2,211.2 120.1,222.1 126.0,229.6 131.9,234.3 137.8,239.6 143.8,244.3 149.7,245.7 155.6,248.9 161.5,250.7 167.4,253.4 173.4,255.8 179.3,256.5 185.2,257.5 191.1,259.6 197.0,260.3 203.0,260.9 208.9,260.7 214.8,262.8 220.7,263.0 226.6,263.7 232.6,264.3 238.5,263.5 244.4,264.4 250.3,263.1 256.2,263.6 262.2,264.1 268.1,263.9 274.0,263.0 279.9,262.4 285.8,262.0 291.8,262.4 297.7,261.6 303.6,260.1 309.5,260.3 315.4,259.8 321.4,258.8 327.3,257.2 333.2,256.6 339.1,255.2 345.0,254.8 351.0,253.0 356.9,252.5 362.8,250.9 368.7,250.0 374.6,249.8 380.6,250.6 386.5,250.6 392.4,250.4 398.3,251.2 404.2,251.7 410.2,253.0 416.1,254.4 422.0,255.6 427.9,256.6 433.8,257.7 439.8,259.0 445.7,259.2 451.6,259.9 457.5,260.6 463.4,261.4 469.4,262.0 475.3,261.9 481.2,261.8 487.1,262.7 493.0,261.8 499.0,261.4 504.9,261.2 510.8,260.7 516.7,260.1 522.6,258.2 528.6,256.5 534.5,255.7 540.4,254.1 546.3,252.3 552.2,249.2 558.2,245.9 564.1,242.5 570.0,237.9 575.9,232.0 581.8,223.7 587.8,212.0 593.7,198.4 599.6,177.4 605.5,149.7 611.4,109.3 617.4,55.2 623.3,30.0 629.2,135.2 635.1,229.3 641.0,278.5" fill="none" stroke="#3f5ae0" stroke-width="1.8"/>
<text x="87.5" y="46" font-size="10.5" fill="#6b7280">unmethylated</text>
<text x="608.5" y="46" text-anchor="end" font-size="10.5" fill="#6b7280">methylated</text>
<rect x="52" y="30" width="592" height="260" fill="none" stroke="#c8ccd2" stroke-width="1"/>
<text x="52" y="18" font-size="13" font-weight="600" fill="#111827">Beta-value distribution <tspan font-weight="400" fill="#6b7280">— QCDPB, EPICv2 (GM12878)</tspan></text>
<text x="348.0" y="324" text-anchor="middle" font-size="11" fill="#6b7280">beta (fraction methylated)</text>
<text x="14" y="160.0" font-size="11" fill="#6b7280" transform="rotate(-90 14 160.0)" text-anchor="middle">probe count</text>
<text x="640" y="282" text-anchor="end" font-size="10" fill="#9aa1ac">894,634 probes · 4.6% masked</text>
</svg>