<svg xmlns="http://www.w3.org/2000/svg" viewBox="0 0 1120 360" font-family="-apple-system,Segoe UI,Helvetica,Arial,sans-serif">
<rect width="1120" height="360" fill="#ffffff"/>
<defs><marker id="a" markerWidth="9" markerHeight="9" refX="7" refY="3" orient="auto"><path d="M0,0 L7,3 L0,6 z" fill="#98a1ad"/></marker></defs>
<rect x="24" y="20" width="250" height="50" rx="9" fill="#f4f5f7" stroke="#cdd2da" stroke-width="1.2"/>
<text x="38" y="40" font-size="12.5" font-weight="600" fill="#111827" text-anchor="start">sesame fetch</text>
<text x="38" y="57" font-size="10.5" font-weight="400" fill="#6b7280" text-anchor="start">ordering · mask · coords · genome</text>
<text x="38" y="68" font-size="10" font-weight="400" fill="#111827" text-anchor="start"></text>
<path d="M150,70 L150,150" stroke="#98a1ad" stroke-width="1.6" fill="none" marker-end="url(#a)"/>
<text x="158" y="120" font-size="10" font-weight="400" fill="#9aa1ac" text-anchor="start">annotations</text>
<rect x="24" y="150" width="124" height="72" rx="9" fill="#fff7ed" stroke="#f0c896" stroke-width="1.2"/>
<text x="86" y="182" font-size="12.5" font-weight="600" fill="#111827" text-anchor="middle">IDAT pair</text>
<text x="86" y="200" font-size="10.5" font-weight="400" fill="#8a6d3b" text-anchor="middle">Grn + Red</text>
<path d="M150,186 L206,186" stroke="#98a1ad" stroke-width="1.6" fill="none" marker-end="url(#a)"/>
<rect x="208" y="132" width="262" height="108" rx="9" fill="#eef2ff" stroke="#b9c2f0" stroke-width="1.2"/>
<text x="220" y="152" font-size="12.5" font-weight="600" fill="#111827" text-anchor="start">sesame preprocess</text>
<rect x="222" y="162" width="44" height="34" rx="7" fill="#ffffff" stroke="#b9c2f0" stroke-width="1.2"/>
<text x="244" y="184" font-size="14" font-weight="700" fill="#3f5ae0" text-anchor="middle">Q</text>
<text x="244" y="210" font-size="8.5" font-weight="400" fill="#6b7280" text-anchor="middle">qualityMask</text>
<rect x="270" y="162" width="44" height="34" rx="7" fill="#ffffff" stroke="#b9c2f0" stroke-width="1.2"/>
<text x="292" y="184" font-size="14" font-weight="700" fill="#3f5ae0" text-anchor="middle">C</text>
<text x="292" y="210" font-size="8.5" font-weight="400" fill="#6b7280" text-anchor="middle">channel</text>
<rect x="318" y="162" width="44" height="34" rx="7" fill="#ffffff" stroke="#b9c2f0" stroke-width="1.2"/>
<text x="340" y="184" font-size="14" font-weight="700" fill="#3f5ae0" text-anchor="middle">D</text>
<text x="340" y="210" font-size="8.5" font-weight="400" fill="#6b7280" text-anchor="middle">dyeBias</text>
<rect x="366" y="162" width="44" height="34" rx="7" fill="#ffffff" stroke="#b9c2f0" stroke-width="1.2"/>
<text x="388" y="184" font-size="14" font-weight="700" fill="#3f5ae0" text-anchor="middle">P</text>
<text x="388" y="210" font-size="8.5" font-weight="400" fill="#6b7280" text-anchor="middle">pOOBAH</text>
<rect x="414" y="162" width="44" height="34" rx="7" fill="#ffffff" stroke="#b9c2f0" stroke-width="1.2"/>
<text x="436" y="184" font-size="14" font-weight="700" fill="#3f5ae0" text-anchor="middle">B</text>
<text x="436" y="210" font-size="8.5" font-weight="400" fill="#6b7280" text-anchor="middle">noob</text>
<text x="220" y="232" font-size="10" font-weight="400" fill="#8a93a6" text-anchor="start">per-sample, parallel over a cohort</text>
<path d="M470,186 L528,186" stroke="#98a1ad" stroke-width="1.6" fill="none" marker-end="url(#a)"/>
<rect x="530" y="120" width="150" height="40" rx="9" fill="#f4f5f7" stroke="#cdd2da" stroke-width="1.2"/>
<text x="544" y="138" font-size="11.5" font-weight="600" fill="#111827" text-anchor="start">beta.cg</text>
<text x="544" y="153" font-size="9.5" font-weight="400" fill="#6b7280" text-anchor="start">betas (fmt4)</text>
<rect x="530" y="172" width="150" height="40" rx="9" fill="#f4f5f7" stroke="#cdd2da" stroke-width="1.2"/>
<text x="544" y="190" font-size="11.5" font-weight="600" fill="#111827" text-anchor="start">intensity.cg</text>
<text x="544" y="205" font-size="9.5" font-weight="400" fill="#6b7280" text-anchor="start">M/U (fmt3)</text>
<rect x="530" y="224" width="150" height="40" rx="9" fill="#f4f5f7" stroke="#cdd2da" stroke-width="1.2"/>
<text x="544" y="242" font-size="11.5" font-weight="600" fill="#111827" text-anchor="start">pval.cg</text>
<text x="544" y="257" font-size="9.5" font-weight="400" fill="#6b7280" text-anchor="start">pOOBAH p</text>
<rect x="530" y="276" width="150" height="40" rx="9" fill="#f4f5f7" stroke="#cdd2da" stroke-width="1.2"/>
<text x="544" y="294" font-size="11.5" font-weight="600" fill="#111827" text-anchor="start">qc.tsv</text>
<text x="544" y="309" font-size="9.5" font-weight="400" fill="#6b7280" text-anchor="start">65-metric QC</text>
<rect x="772" y="116" width="326" height="48" rx="9" fill="#ecfdf5" stroke="#a7d8c4" stroke-width="1.2"/>
<text x="786" y="135" font-size="12" font-weight="600" fill="#111827" text-anchor="start">sesame dml</text>
<text x="786" y="152" font-size="10" font-weight="400" fill="#4b5563" text-anchor="start">differential methylation — OLS per probe, t/F tests</text>
<rect x="772" y="172" width="326" height="60" rx="9" fill="#ecfdf5" stroke="#a7d8c4" stroke-width="1.2"/>
<text x="786" y="191" font-size="12" font-weight="600" fill="#111827" text-anchor="start">sesame cnv</text>
<text x="786" y="208" font-size="10" font-weight="400" fill="#4b5563" text-anchor="start">log2 ratio → 50 kb bins → CBS segments</text>
<text x="786" y="224" font-size="9" font-weight="400" fill="#8a93a6" text-anchor="start">(needs a normal reference + genome)</text>
<rect x="772" y="240" width="326" height="40" rx="9" fill="#f4f5f7" stroke="#cdd2da" stroke-width="1.2"/>
<text x="786" y="258" font-size="11.5" font-weight="600" fill="#111827" text-anchor="start">sesame attach-probe</text>
<text x="786" y="273" font-size="9.5" font-weight="400" fill="#6b7280" text-anchor="start">label any .cg / .cm / coord table with Probe_IDs</text>
<path d="M680,140 L772,140" stroke="#98a1ad" stroke-width="1.6" fill="none" marker-end="url(#a)"/>
<path d="M680,192 L772,196" stroke="#98a1ad" stroke-width="1.6" fill="none" marker-end="url(#a)"/>
</svg>